/* XPM */ 
static const char * bow_xpm[] = {
"16 16 44 1",
" 	c None",
"!	c black",
"#	c #251C19",
"$	c #221D1A",
"%	c #2C1F19",
"&	c #1F2525",
"'	c #483C37",
"(	c #413835",
")	c #303332",
"*	c #272221",
"+	c #262120",
",	c #373A38",
"-	c #1B1515",
".	c #1C1616",
"0	c #414442",
"1	c #36322F",
"2	c #3C3936",
"3	c #4A4E4D",
"4	c #3E332E",
"5	c #362C27",
"6	c #44342D",
"7	c #464A4A",
"8	c #2A2520",
"9	c #27221E",
":	c #474B4A",
";	c #2A2420",
"<	c #28221E",
"=	c #4A4E4E",
">	c #3C322D",
"?	c #382E29",
"@	c #3F322B",
"A	c #35312E",
"B	c #3B3835",
"C	c #383B39",
"D	c #161211",
"E	c #171212",
"F	c #110F0E",
"G	c #0F0D0D",
"H	c #2B2F2F",
"I	c #110D0C",
"J	c #151110",
"K	c #171615",
"L	c #130E0C",
"M	c #080605",
"      #         ",
"      $%        ",
"      &'(       ",
"      ) *+      ",
"      ,  -.     ",
"      0  12     ",
"      3 456     ",
"      7 89      ",
"      : ;<      ",
"      = >?@     ",
"      0  AB     ",
"      C  DE     ",
"      ) FG      ",
"      HIJ       ",
"      KL        ",
"      M         "};