/* XPM */ 
static const char * bow_shoot_xpm[] = {
"16 16 54 1",
" 	c None",
"!	c black",
"#	c #302B29",
"$	c #261D1A",
"%	c #3D4141",
"&	c #382D27",
"'	c #433934",
"(	c #423731",
")	c #444A49",
"*	c #414746",
"+	c #3A322F",
",	c #3B3634",
"-	c #322D2B",
".	c #464A48",
"0	c #434745",
"1	c #171010",
"2	c #494C4B",
"3	c #282523",
"4	c #2C2927",
"5	c #434746",
"6	c #424645",
"7	c #3C3734",
"8	c #423E3B",
"9	c #3D4040",
":	c #372B25",
";	c #322721",
"<	c #474B4B",
"=	c #464A49",
">	c #292420",
"?	c #25201C",
"@	c #2A2621",
"A	c #26211D",
"B	c #454846",
"C	c #2F241F",
"D	c #332621",
"E	c #414543",
"F	c #3D3734",
"G	c #46403C",
"H	c #3F4442",
"I	c #2A2726",
"J	c #302D2A",
"K	c #404545",
"L	c #3D4242",
"M	c #120E0E",
"N	c #3D4241",
"O	c #13100F",
"P	c #0F0D0D",
"Q	c #110F0E",
"R	c #393D3E",
"S	c #1F1C19",
"T	c #191514",
"U	c #120F0D",
"V	c #1B1B1B",
"W	c #0D0B0B",
"       #$       ",
"       %&'(     ",
"      )* +,--   ",
"     .0     1   ",
"     2      34  ",
"    56      78  ",
"    9      :;   ",
"    <=     >?   ",
"     2     @A   ",
"     B     CD   ",
"     5E     FG  ",
"      H     IJ  ",
"      KL    M   ",
"      KN  OPQ   ",
"       RSTU     ",
"       VW       "};