/* XPM */ 
static const char * checked_disabled_xpm[] = {
"16 16 21 1",
" 	c None",
"!	c black",
"#	c #464646",
"$	c #E1E1E1",
"%	c #E2E2E2",
"&	c #E4E4E4",
"'	c #E6E6E6",
"(	c #E9E9E9",
")	c #EBEBEB",
"*	c #EEEEEE",
"+	c #F0F0F0",
",	c #F2F2F2",
"-	c #F4F4F4",
".	c #6C6C6C",
"0	c #F6F6F6",
"1	c #F8F8F8",
"2	c #F9F9F9",
"3	c #FBFBFB",
"4	c #FDFDFD",
"5	c #FEFEFE",
"6	c white",
"                ",
" #############  ",
" #$$$%&'()*+,#  ",
" #$$%&'()*+,-#  ",
" #$%&'()*+.-0#  ",
" #%&'()*+..01#  ",
" #&'.)*+...12#  ",
" #'(..+...123#  ",
" #().....1234#  ",
" #)*+...12345#  ",
" #*+,-.123456#  ",
" #+,-01234566#  ",
" #,-012345666#  ",
" #############  ",
"                ",
"                "};