/* XPM */ 
static const char * exp3ds_xpm[] = {
"32 32 28 1",
" 	c None",
"!	c black",
"#	c white",
"$	c #C0C0C0",
"%	c #16EAED",
"&	c #15E1E5",
"'	c #13D4DA",
"(	c #11C4CD",
")	c #0EB1BC",
"*	c #15DDE2",
"+	c #13D0D7",
",	c #0CA4B1",
"-	c #0A94A3",
".	c #12CDD4",
"0	c #11C1CA",
"1	c #0EADB9",
"2	c #0CA1AE",
"3	c #14D9DF",
"4	c #10BCC5",
"5	c #0C9EAC",
"6	c #0DAAB6",
"7	c #16E6E9",
"8	c #098C9C",
"9	c #088495",
":	c #09899A",
";	c #FF0000",
"<	c #B8C100",
"=	c #4001C1",
"     ######                     ",
"   ####!!####   !!!!!           ",
" ####!!$$!!#### !%%&!!!!        ",
"###!!$$$$$$!!###!%%&'()!!!!!    ",
"##!$$$$$$$$$$!##!!%*+(),---!!   ",
"##!!!$$$$$$!!!## !%*.012----!!  ",
"##!$$!!$$!!$$!## !%3.415-----!  ",
"##!$$$$!!$$$$!##!!%'.465-----!  ",
"##!$$$$$!$$$$!##!%7'()!!!----!  ",
"##!$$$$$!$$$$!##!%&.!!!!-----!  ",
"##!$$$$$!$$$$!##!!!!!  !----!!  ",
"###!!$$$!$$!!##     !!!!888-!!!!",
" ####!!$!!!####     !8888888888!",
"   ####!!####       !!88888888!!",
"     ######          !!!9:8:!!! ",
"       ##              !!99!!   ",
"                        !!!!    ",
"                                ",
" !!!!!!   !!!!!!!!      !!!!!   ",
"!!;;;;!! !<<<<<<<!!   !!!===!!! ",
"!;;;;;;!!!<<<<<<<<!! !!=======! ",
"!;!!!!;;!!<<!!!!!<<! !==!!!!!=!!",
"!!!!!!;;!!<<!   !!<!!!==!!  !!!!",
"  !!;;;!!!<<!    !<<!!!==!!!!   ",
"  !;;;;!!!<<!    !<<! !=====!!! ",
"  !!!!;;!!<<!    !<<! !!!!====!!",
"!!!  !;;!!<<!    !<<!    !!!!==!",
"!;!  !;;!!<<!   !!<!!!!!!!  !==!",
"!;!!!!;!!!<<!!!!!<<! !!==!!!!==!",
"!;;;;;;! !<<<<<<<<!!  !=======!!",
"!!!;;!!! !<<<<<<<!!   !!!===!!! ",
"  !!!!   !!!!!!!!!      !!!!!   "};