/* XPM */ 
static const char * imp3ds_xpm[] = {
"32 32 59 1",
" 	c None",
"!	c black",
"#	c white",
"$	c #FF0000",
"%	c #B8C100",
"&	c #4001C1",
"'	c #16EAED",
"(	c #17EBEE",
")	c #17ECEF",
"*	c #17EDEF",
"+	c #16E9EC",
",	c #16E6E9",
"-	c #15E1E5",
".	c #15E3E7",
"0	c #15DFE3",
"1	c #15DDE2",
"2	c #14D9DF",
"3	c #14D7DD",
"4	c #13D4DA",
"5	c #13CFD6",
"6	c #C0C0C0",
"7	c #13D3D9",
"8	c #13D0D7",
"9	c #12CDD4",
":	c #12CBD3",
";	c #12C8D0",
"<	c #11C5CD",
"=	c #11C4CD",
">	c #11C1CA",
"?	c #10BFC8",
"@	c #10BCC5",
"A	c #0FB8C2",
"B	c #0FB3BE",
"C	c #098A9B",
"D	c #0EB1BC",
"E	c #0EAFBB",
"F	c #0EADB9",
"G	c #0DAAB6",
"H	c #098B9B",
"I	c #088899",
"J	c #0CA4B1",
"K	c #0CA1AE",
"L	c #0C9EAC",
"M	c #0B9BA9",
"N	c #098C9C",
"O	c #09899A",
"P	c #0A93A3",
"Q	c #0A91A1",
"R	c #0A92A1",
"S	c #0A90A0",
"T	c #098E9E",
"U	c #088697",
"V	c #0A93A2",
"W	c #098C9D",
"X	c #088798",
"Y	c #088495",
"Z	c #0A94A3",
"[	c #098F9F",
"]	c #098D9D",
" !!!!!!  #!!!!!!!!      !!!!!   ",
"!!$$$$!! !%%%%%%%!!   !!!&&&!!! ",
"!$$$$$$!!!%%%%%%%%!! !!&&&&&&&! ",
"!$!!!!$$!!%%!!!!!%%! !&&!!!!!&!!",
"!!!!!!$$!!%%!   !!%!!!&&!!  !!!!",
"  !!$$$!!!%%!    !%%!!!&&!!!!   ",
"  !$$$$!!!%%!    !%%! !&&&&&!!! ",
"  !!!!$$!!%%!    !%%! !!!!&&&&!!",
"!!!  !$$!!%%!    !%%!    !!!!&&!",
"!$!  !$$!!%%!   !!%!!!!!!!  !&&!",
"!$!!!!$!!!%%!!!!!%%! !!&&!!!!&&!",
"!$$$$$$! !%%%%%%%%!!  !&&&&&&&!!",
"!!!$$!!! !%%%%%%%!!   !!!&&&!!! ",
"  !!!!   !!!!!!!!!      !!!!!   ",
"                                ",
"!!!!  !!!!                      ",
"!''!!!!()!           ######     ",
"!(()*(+,-!         ####!!####   ",
"!.-012345!       ####!!66!!#### ",
"!!789:;<!!!!!   ###!!666666!!###",
" !=>?@AB! !C!!  ##!6666666666!##",
" !BDEFG!! !HI!  ##!!!666666!!!##",
" !!JKLM!!!!NO!! ##!66!!66!!66!##",
"  !PQQR!PSTNOU!!##!6666!!6666!##",
"  !VPPPPPSTWOXY!##!66666!6666!##",
"  !PPPPPZS[WOIY!##!66666!6666!##",
"  !!PPPPZQS]CX!!##!66666!6666!##",
"   !!PPPP!!TC!! ###!!666!66!!###",
"    !!!!!!!TC!   ####!!6!!!#### ",
"          !T!!     ####!!####   ",
"          !!!        ######     ",
"                       ##       "};