/* XPM */ 
static const char * impexp_xpm[] = {
"48 48 669 2",
"  	c None",
"! 	c black",
"# 	c #00000D",
"$ 	c #71D2E6",
"% 	c #62C4D8",
"& 	c #6DCFDF",
"' 	c #67C6D8",
"( 	c #5CC0CF",
") 	c #61BDD2",
"* 	c #61BFD4",
"+ 	c #5FBFD4",
", 	c #60BFD5",
"- 	c #59BCD6",
". 	c #5AB5D4",
"0 	c #49A9CB",
"1 	c #3997BA",
"2 	c #3270AD",
"3 	c #00002D",
"4 	c #67C8E8",
"5 	c #73D0EF",
"6 	c #65C8E4",
"7 	c #5BBBD3",
"8 	c #469DC4",
"9 	c #3582B7",
": 	c #2E6EB4",
"; 	c #2E70B7",
"< 	c #2C6DB7",
"= 	c #2C6BBD",
"> 	c #2C6BBE",
"? 	c #2D6AC0",
"@ 	c #2A68BD",
"A 	c #2B69BD",
"B 	c #3177BC",
"C 	c #4193C2",
"D 	c #3E9DB8",
"E 	c #003A7A",
"F 	c #000057",
"G 	c #55B5D7",
"H 	c #6ACDFF",
"I 	c #5DC6FA",
"J 	c #54ABEB",
"K 	c #3F8BDA",
"L 	c #2D6CC5",
"M 	c #2860BD",
"N 	c #003CBA",
"O 	c #1B59A5",
"P 	c #3886B7",
"Q 	c #48ABCA",
"R 	c #0D3B8D",
"S 	c #00006E",
"T 	c #5CBAE1",
"U 	c #69CCF5",
"V 	c #58B7FC",
"W 	c #3E8AE5",
"X 	c #2C66E4",
"Y 	c #1F50E4",
"Z 	c #1240E4",
"[ 	c #2E77AA",
"] 	c #3C82B8",
"^ 	c #23549B",
"_ 	c #153CAB",
"` 	c #00007B",
"a 	c #57B5E6",
"b 	c #5FC2FA",
"c 	c #54ACEE",
"d 	c #3B80D9",
"e 	c #2252BF",
"f 	c #133BE4",
"g 	c #0D33FF",
"h 	c #1E5B98",
"i 	c #1F51B4",
"j 	c #133CC8",
"k 	c #00007C",
"l 	c #5CB3F3",
"m 	c #49B0E1",
"n 	c #5EC3F8",
"o 	c #57B1EC",
"p 	c #3781CE",
"q 	c #214FB2",
"r 	c #1139C2",
"s 	c #143EFF",
"t 	c #093B9E",
"u 	c #052CC2",
"v 	c #00006F",
"w 	c #4095C8",
"x 	c #5AB6F1",
"y 	c #55B4E7",
"z 	c #418BD5",
"{ 	c #2353A4",
"| 	c #1134AE",
"} 	c #1030DC",
"~ 	c #000083",
" !	c #000051",
"!!	c #56ADE6",
"#!	c #4C9CE3",
"$!	c #3265BD",
"%!	c #153BA9",
"&!	c #0D2BCB",
"'!	c #0B2CD6",
"(!	c #3A3A3A",
")!	c #1C1C1C",
"*!	c #121212",
"+!	c #262626",
",!	c #000021",
"-!	c #2C2C2C",
".!	c #232323",
"0!	c #191919",
"1!	c #131313",
"2!	c #161616",
"3!	c #1D1D1D",
"4!	c #3581C6",
"5!	c #54A5F0",
"6!	c #4EA0F8",
"7!	c #3A7BDB",
"8!	c #1D47A7",
"9!	c #0E2AC0",
":!	c #0D28CF",
";!	c #111111",
"<!	c #060606",
"=!	c #373737",
">!	c #616161",
"?!	c #494949",
"@!	c #040404",
"A!	c #000001",
"B!	c #4795DA",
"C!	c #4E9CEA",
"D!	c #468EEA",
"E!	c #2D5BC2",
"F!	c #14349F",
"G!	c #0C24C3",
"H!	c #0C24D0",
"I!	c #101010",
"J!	c #242424",
"K!	c #707070",
"L!	c #8E8E8E",
"M!	c #7D7D7D",
"N!	c #696969",
"O!	c #525252",
"P!	c #2F2F2F",
"Q!	c #090909",
"R!	c #181818",
"S!	c #484848",
"T!	c #7A7A7A",
"U!	c #979797",
"V!	c #ABABAB",
"W!	c #B5B5B5",
"X!	c #A7A7A7",
"Y!	c #AAAAAA",
"Z!	c #A6A6A6",
"[!	c #6F6F6F",
"]!	c #404040",
"^!	c #1A1A1A",
"_!	c #0E0E0E",
"`!	c #468FD7",
"a!	c #5197E3",
"b!	c #3A74D6",
"c!	c #1B409A",
"d!	c #0C2391",
"e!	c #0B21C5",
"f!	c #0B20CE",
"g!	c #4D4D4D",
"h!	c #666666",
"i!	c #8A8A8A",
"j!	c #AFAFAF",
"k!	c #D1D1D1",
"l!	c #DFDFDF",
"m!	c #DEDEDE",
"n!	c #BCBCBC",
"o!	c #CBCBCB",
"p!	c #C3C3C3",
"q!	c #9B9B9B",
"r!	c #6D6D6D",
"s!	c #3D3D3D",
"t!	c #4486D1",
"u!	c #478CDC",
"v!	c #326CC0",
"w!	c #16347F",
"x!	c #0A1E85",
"y!	c #071688",
"z!	c #061274",
"{!	c #0B0B0B",
"|!	c #333333",
"}!	c #606060",
"~!	c #B2B2B2",
" #	c #D2D2D2",
"!#	c #E9E9E9",
"##	c #EDEDED",
"$#	c #E2E2E2",
"%#	c #BBBBBB",
"&#	c #CFCFCF",
"'#	c #E6E6E6",
"(#	c #8F8F8F",
")#	c #656565",
"*#	c #363636",
"+#	c #171717",
",#	c #070707",
"-#	c #0A1D80",
".#	c #091A73",
"0#	c #061057",
"1#	c #050A2C",
"2#	c #05092B",
"3#	c #4C4C4C",
"4#	c #747474",
"5#	c #9E9E9E",
"6#	c #C6C6C6",
"7#	c #EBEBEB",
"8#	c #F4F4F4",
"9#	c #EFEFEF",
":#	c #B6B6B6",
";#	c #CDCDCD",
"<#	c #F0F0F0",
"=#	c #C4C4C4",
">#	c #B9B9B9",
"?#	c #ACACAC",
"@#	c #636363",
"A#	c #3B3B3B",
"B#	c #020202",
"C#	c #387AC8",
"D#	c #4380D6",
"E#	c #3167C0",
"F#	c #16317D",
"G#	c #061764",
"H#	c #030A2D",
"I#	c #0B1134",
"J#	c #111639",
"K#	c #0B1033",
"L#	c #D8D8D8",
"M#	c #E8E8E8",
"N#	c #F1F1F1",
"O#	c #DDDDDD",
"P#	c #C0C0C0",
"Q#	c #C0C3E1",
"R#	c #C5CFEA",
"S#	c #C6D0EB",
"T#	c #BDC7E3",
"U#	c #AAB7CD",
"V#	c #9AA7BD",
"W#	c #657287",
"X#	c #263444",
"Y#	c #192637",
"Z#	c #14253A",
"[#	c #182E50",
"]#	c #3566B2",
"^#	c #376EDC",
"_#	c #2B59DC",
"`#	c #001BB8",
"a#	c #3568BA",
"b#	c #3C72D0",
"c#	c #3061B6",
"d#	c #153378",
"e#	c #081652",
"f#	c #080C1F",
"g#	c #272B3F",
"h#	c #3A3D5D",
"i#	c #303453",
"j#	c #2A2A2A",
"k#	c #424242",
"l#	c #727272",
"m#	c #A1A1A1",
"n#	c #CCCCCC",
"o#	c #F2F2F2",
"p#	c #EEEEEE",
"q#	c #C3CCE1",
"r#	c #C5CEE3",
"s#	c #B1BAD1",
"t#	c #8B95AC",
"u#	c #6C768D",
"v#	c #475469",
"w#	c #283448",
"x#	c #2F3B4F",
"y#	c #263246",
"z#	c #142241",
"{#	c #2B57B8",
"|#	c #2650E2",
"}#	c #1633E4",
"~#	c #081FE2",
" $	c #091853",
"!$	c #0D1225",
"#$	c #404458",
"$$	c #616484",
"%$	c #5B5E7E",
"&$	c #414141",
"'$	c #292929",
"($	c #585858",
")$	c #919191",
"*$	c #C9C9C9",
"+$	c #EAEAEA",
",$	c #ECECEC",
"-$	c #B7B7B7",
".$	c #B4B4B4",
"0$	c #ACB4C9",
"1$	c #8A93AB",
"2$	c #576278",
"3$	c #353F55",
"4$	c #323E54",
"5$	c #414E62",
"6$	c #4F5C70",
"7$	c #3E4A5E",
"8$	c #1B2948",
"9$	c #2D59BA",
":$	c #1C50A5",
";$	c #3163BA",
"<$	c #2C59B0",
"=$	c #1A3D81",
">$	c #0B1B4B",
"?$	c #0D1323",
"@$	c #414452",
"A$	c #6C6F86",
"B$	c #7F8299",
"C$	c #909090",
"D$	c #A5A5A5",
"E$	c #535353",
"F$	c #939393",
"G$	c #F5F5F5",
"H$	c #D4D4D4",
"I$	c #A0A0A0",
"J$	c #4A4A4A",
"K$	c #30364B",
"L$	c #273043",
"M$	c #424C5E",
"N$	c #747C91",
"O$	c #A4ADC4",
"P$	c #788198",
"Q$	c #475267",
"R$	c #16213F",
"S$	c #2042A0",
"T$	c #142FBD",
"U$	c #0719D9",
"V$	c #0518F8",
"W$	c #3054A6",
"X$	c #2A58AA",
"Y$	c #20448D",
"Z$	c #0F204F",
"[$	c #0F1524",
"]$	c #42454F",
"^$	c #6F7283",
"_$	c #898B9C",
"`$	c #A6A9BF",
"a$	c #808080",
"b$	c #5E5E5E",
"c$	c #393939",
"d$	c #505050",
"e$	c #777777",
"f$	c #C8C8C8",
"g$	c #E3E3E3",
"h$	c #545454",
"i$	c #3C3C3C",
"j$	c #687080",
"k$	c #838B9B",
"l$	c #A5ADBE",
"m$	c #BDC5D8",
"n$	c #828A9D",
"o$	c #484F61",
"p$	c #121830",
"q$	c #132570",
"r$	c #061581",
"s$	c #0513CB",
"t$	c #0512FF",
"u$	c #A9ADC2",
"v$	c #DCDCDC",
"w$	c #B0B0B0",
"x$	c #5A5A5A",
"y$	c #303030",
"z$	c #515151",
"{$	c #A9A9A9",
"|$	c #BABABA",
"}$	c #B8B8B8",
"~$	c #565656",
" %	c #313131",
"!%	c #999999",
"#%	c #C3CBDB",
"$%	c #C7CEE0",
"%%	c #BEC6D9",
"&%	c #828A9E",
"'%	c #174294",
"(%	c #284796",
")%	c #1B408B",
"*%	c #13255D",
"+%	c #111728",
",%	c #6F717E",
"-%	c #888B98",
".%	c #AAACBD",
"0%	c #E1E1E1",
"1%	c #A3A3A3",
"2%	c #353535",
"3%	c #454545",
"4%	c #4B4B4B",
"5%	c #646464",
"6%	c #BDBDBD",
"7%	c #C4CAE2",
"8%	c #C7CFE5",
"9%	c #BFC6D9",
":%	c #838A9E",
";%	c #474C5D",
"<%	c #0E152A",
"=%	c #0A1B5D",
">%	c #040F6D",
"?%	c #040FC3",
"@%	c #0412FF",
"A%	c #1B397F",
"B%	c #1B3C83",
"C%	c #142860",
"D%	c #111829",
"E%	c #434652",
"F%	c #6F717D",
"G%	c #898B96",
"H%	c #AAACB9",
"I%	c #BFC2D6",
"J%	c #BFBFBF",
"K%	c #878787",
"L%	c #5B5B5B",
"M%	c #AEAEAE",
"N%	c #DADADA",
"O%	c #C5CBE2",
"P%	c #C8D0E9",
"Q%	c #BFC7DE",
"R%	c #828AA2",
"S%	c #474D63",
"T%	c #0F152F",
"U%	c #0D1C6C",
"V%	c #040F80",
"W%	c #030DD4",
"X%	c #040EFF",
"Y%	c #898C97",
"Z%	c #5C5C5C",
"[%	c #1F1F1F",
"]%	c #A4A4A4",
"^%	c #E0E0E0",
"_%	c #C7CFE9",
"`%	c #BEC6DD",
"a%	c #00104D",
"b%	c #193275",
"c%	c #172B5E",
"d%	c #121829",
"e%	c #444856",
"f%	c #707382",
"g%	c #8A8D9C",
"h%	c #AAACBA",
"i%	c #BFC1D3",
"j%	c #C0C1D2",
"k%	c #C6CDE6",
"l%	c #C7CDE9",
"m%	c #BEC7E4",
"n%	c #828BA9",
"o%	c #474E69",
"p%	c #0F1438",
"q%	c #0C198A",
"r%	c #030CA0",
"s%	c #030CE8",
"t%	c #020CF9",
"u%	c #00164C",
"v%	c #112150",
"w%	c #101524",
"x%	c #444855",
"y%	c #717483",
"z%	c #8B8E9D",
"{%	c #ABADBB",
"|%	c #C0C2D3",
"}%	c #C0C2D4",
"~%	c #C0C0D8",
" &	c #B1B1B1",
"!&	c #D7D7D7",
"#&	c #BEBEBE",
"$&	c #C3C9E1",
"%&	c #C6CCE1",
"&&	c #C5CCE5",
"'&	c #BEC5E6",
"(&	c #8289AA",
")&	c #464D6C",
"*&	c #0E1337",
"+&	c #091686",
",&	c #0209A5",
"-&	c #020ACB",
".&	c #0309C8",
"0&	c #BFBFD7",
"1&	c #BDBDD6",
"2&	c #9F9F9F",
"3&	c #757575",
"4&	c #282828",
"5&	c #4E4E4E",
"6&	c #929292",
"7&	c #BDC3DA",
"8&	c #BFC5DD",
"9&	c #C2C7DF",
":&	c #C2C8E0",
";&	c #C6CDE5",
"<&	c #BEC6E6",
"=&	c #434650",
">&	c #707381",
"?&	c #8A8E9B",
"@&	c #AAADBB",
"A&	c #BFC2D3",
"B&	c #C0C3D4",
"C&	c #C1C3D4",
"D&	c #BFC2D7",
"E&	c #BEC1D7",
"F&	c #B2B4CD",
"G&	c #A1A1BA",
"H&	c #9999B2",
"I&	c #9494AC",
"J&	c #7C7C94",
"K&	c #2A2A44",
"L&	c #51516B",
"M&	c #9292AB",
"N&	c #9898B0",
"O&	c #9C9CB5",
"P&	c #A8ADC2",
"Q&	c #B7BCD1",
"R&	c #BEC2D5",
"S&	c #C4CADD",
"T&	c #C5CCE3",
"U&	c #BEC5E5",
"V&	c #8188A9",
"W&	c #464B68",
"X&	c #0E1232",
"Y&	c #091478",
"Z&	c #010892",
"[&	c #0108B7",
"]&	c #0108C2",
"^&	c #030303",
"_&	c #6D6F7B",
"`&	c #878994",
"a&	c #AAACB7",
"b&	c #BFC2D0",
"c&	c #C0C3D0",
"d&	c #B9BBCA",
"e&	c #B1B3C6",
"f&	c #ABADC1",
"g&	c #A5A7BC",
"h&	c #9F9FB8",
"i&	c #A0A0B8",
"j&	c #A3A3BC",
"k&	c #8D8DA6",
"l&	c #2F2F48",
"m&	c #5C5C75",
"n&	c #A4A4BD",
"o&	c #A2A2BB",
"p&	c #A2A5BF",
"q&	c #A6A8C3",
"r&	c #A8A8A8",
"s&	c #C2C8E4",
"t&	c #BDC3E4",
"u&	c #8187A8",
"v&	c #454965",
"w&	c #0E122C",
"x&	c #081363",
"y&	c #010679",
"z&	c #0106A8",
"{&	c #0106C5",
"|&	c #868893",
"}&	c #BFC1CF",
"~&	c #BCBFCC",
" '	c #ADAFBE",
"!'	c #9EA1B4",
"#'	c #9496AA",
"$'	c #9D9FB4",
"%'	c #A9A9C2",
"&'	c #B7B7D0",
"''	c #34344D",
"('	c #696982",
")'	c #BFBFD8",
"*'	c #BCBCD5",
"+'	c #B4B4CD",
",'	c #AAADC7",
"-'	c #9A9A9A",
".'	c #BBC1DD",
"0'	c #B9BFE0",
"1'	c #8085A7",
"2'	c #444865",
"3'	c #888888",
"4'	c #B6B6C0",
"5'	c #9D9DA7",
"6'	c #9D9FAA",
"7'	c #A4A5B5",
"8'	c #ACADBD",
"9'	c #B3B4C7",
":'	c #B9B9D2",
";'	c #BEBED7",
"<'	c #9C9C9C",
"='	c #A1A6C9",
">'	c #9FA5C5",
"?'	c #747A9A",
"@'	c #434762",
"A'	c #0E1029",
"B'	c #080F5A",
"C'	c #010564",
"D'	c #000595",
"E'	c #0104B3",
"F'	c #080808",
"G'	c #A2A2A2",
"H'	c #676767",
"I'	c #B3B3B3",
"J'	c #9A9FC0",
"K'	c #8589A7",
"L'	c #5A5F7C",
"M'	c #30334C",
"N'	c #080B21",
"O'	c #050D52",
"P'	c #01035D",
"Q'	c #00037F",
"R'	c #010393",
"S'	c #5F5F5F",
"T'	c #7F7F7F",
"U'	c #9A9EC0",
"V'	c #656987",
"W'	c #353A57",
"X'	c #161A32",
"Y'	c #02051B",
"Z'	c #040B50",
"['	c #0F0F0F",
"]'	c #3F3F3F",
"^'	c #F3F3F3",
"_'	c #7C7C7C",
"`'	c #4C4F6A",
"a'	c #20243C",
"b'	c #11162E",
"c'	c #0D1126",
"d'	c #0F1127",
"e'	c #060B4E",
"f'	c #00025F",
"g'	c #000378",
"h'	c #000284",
"i'	c #0C0C0C",
"j'	c #1B1B1B",
"k'	c #7B7B7B",
"l'	c #D5D5D5",
"m'	c #595959",
"n'	c #1C1E3A",
"o'	c #0B0D2A",
"p'	c #0C1147",
"q'	c #0C1049",
"r'	c #0E1141",
"s'	c #060956",
"t'	c #000164",
"u'	c #000172",
"v'	c #000174",
"w'	c #202020",
"x'	c #0D0D0D",
"y'	c #2D2D2D",
"z'	c #D0D0D0",
"{'	c #343434",
"|'	c #818181",
"}'	c #080A29",
"~'	c #151A40",
" (	c #101A80",
"!(	c #0C1383",
"#(	c #03075E",
"$(	c #222222",
"%(	c #6E6E6E",
"&(	c #2B2B2B",
"'(	c #626262",
"((	c #7E7E7E",
")(	c #050505",
"*(	c #010184",
"+(	c #070F84",
",(	c #000561",
"-(	c #00015B",
".(	c #000168",
"0(	c #000171",
"1(	c #141414",
"2(	c #767676",
"3(	c #000078",
"4(	c #000079",
"5(	c #00006D",
"6(	c #000071",
"7(	c #2E2E2E",
"8(	c #000066",
"9(	c #000059",
":(	c #323232",
"                                                                                                ",
"                              ! ! ! ! ! ! ! ! ! ! ! ! ! ! ! ! ! ! !                     #       ",
"                        ! ! ! $ $ $ $ $ $ $ $ $ $ $ $ $ $ $ $ $ $ $ ! ! !             ! #       ",
"                    ! ! $ $ $ $ % $ $ & ' ' ( ) ) * + + , - - . 0 0 1 $ $ ! !       ! 2 3       ",
"                ! ! $ $ $ 4 5 5 6 7 7 8 9 9 : ; ; < = = > ? ? @ A A B C C D D !   ! 2 E F       ",
"              ! $ $ $ $ $ 4 5 5 6 7 7 8 9 9 : ; ; < = = > ? ? @ A A B C C D D D ! 2 2 E F       ",
"            ! $ $ $ G H H I J J K L L M N N ! ! ! ! ! ! ! ! ! ! ! ! ! O O P Q Q D 2 2 R S       ",
"          ! $ $ T T U V V W X X Y Z Z ! ! !                           ! ! O [ [ ] ^ ^ _ `       ",
"        ! $ $ $ T T U V V W X X Y Z !                                     ! [ [ ] ^ ^ _ `       ",
"      ! $ $ $ a b b c d d e f f g !                                         ! O h i i j k       ",
"      ! l m m n o o p q q r s s !                                             ! O t t u v       ",
"    ! $ l m m n o o p q q r s !                                                 ! t t u v       ",
"    ! l w x x y z z { | | } !                                                     ! O ~  !      ",
"    ! l !!l l #!$!$!%!&!&!'!!             (!)!! ! *!+!                              ! 2 ,!      ",
"  ! l l !!l l #!$!$!%!&!&!'!!             -!.!0!1!2!3!                                ! ,!      ",
"  ! l 4!5!6!6!7!8!8!9!:!:!!         +!;!<!<!=!>!?!.!@!@!!                               A!      ",
"  ! l B!C!D!D!E!F!F!G!H!H!!       I!I!J!(!?!K!L!M!N!O!P!1!! !                                   ",
"  ! 5!B!C!D!D!E!F!F!G!H!H!!     Q!*!R!S!T!U!V!W!X!Y!Z![!]!^!_!<!                                ",
"  ! 5!`!a!b!b!c!d!d!e!f!f!! ! ! +!g!h!i!j!k!l!m!n!o!m!p!q!r!s!0!! ! !                           ",
"  ! t!t!u!v!v!w!x!x!y!z!z!{!J!|!}!L!~!p! #!###$#%#&###'#o!Y!(#)#*#+#,#! !                       ",
"  ! t!t!u!v!v!w!-#.#0#1#2#)!3#4#5#6#!#7#!#8#9#l!:#;#<#=#>#?#V!L!@#A#)!@!B#! ! ! ! ! ! ! !       ",
"  ! C#C#D#E#E#F#G#H#I#J#K#J!)#>#L#M#N#<#9#<#7#O#:#;#<#P#Q#R#S#T#U#V#W#X#Y#Z#[#]#^#_#_#`#!       ",
"  ! a#a#b#c#c#d#e#f#g#h#i#j#k#l#m#n###o#N#p#7#m!:#;#9#p#P#q#r#s#t#u#v#w#x#y#z#{#|#}#}#~#!       ",
"  ! a#a#b#c#c#d# $!$#$$$%$&$=!'$($)$*$l!+$p#,$l!-$;#9#p#!#.$0$1$2$3$4$5$6$7$8$9$|#}#}#~#!       ",
"  ! :$:$;$<$<$=$>$?$@$A$B$C$D$E$*#|!O!F$&#<#<#l!-$;#<#G$H$I$J$K$L$M$N$O$P$Q$R$S$T$U$U$V$!       ",
"    ! ;$W$X$X$Y$Z$[$]$^$_$`$?#D$a$b$c$d$e$Z!f$L#>#&#g$?#M!h$i$]!j$k$l$m$n$o$p$q$r$s$s$t$!       ",
"    ! ;$W$X$X$Y$Z$[$]$^$_$u$P#<#v$w$x$=!y$z$i!-${$|$}$~$|! %E$!%W!#%$%%%&%o$p$q$r$s$s$t$!       ",
"    ! ;$'%(%(%)%*%+%]$,%-%.%P#<#7#0%&#1%[!2%2%3%h$4%A#|!5%Z!6#O#6%7%8%9%:%;%<%=%>%?%?%@%!       ",
"      ! A%A%A%B%C%D%E%F%G%H%I%J%<#<#<#L#.$K%L%=!-!c$E$M!M%N%7#<#P#O%P%Q%R%S%T%U%V%W%W%X%!       ",
"      ! A%A%A%B%C%D%E%F%Y%H%I%I%P#<#<#<#9#p#?#Z%[%z$]%^%<#9#9#J%O%O%_%`%R%S%T%U%V%W%W%X%!       ",
"        ! a%a%b%c%d%e%f%g%h%i%i%j%P#<#<#9#9#l!w$c$e$O#,$9#9#J%7%k%k%l%m%n%o%p%q%r%s%s%t%!       ",
"          ! ! u%v%w%x%y%z%{%|%|%}%~%P#P#9###l! &(!4#!&M#6%#&$&$&%&%&&&'&(&)&*&+&,&-&-&.&!       ",
"            ! u%v%w%x%y%z%h%j%j%}%0&0&1&|$-$2&3&4&5&6&M%7&8&9&:&%&%&;&<&(&)&*&+&,&-&-&.&!       ",
"              ! v%w%=&>&?&@&A&B&C&D&E&F&G&H&I&J&K&L&M&N&O&P&Q&R&S&S&T&U&V&W&X&Y&Z&[&[&]&!       ",
"                ^&{!x%_&`&a&b&c&d&e&f&g&h&i&j&k&l&m&n&o&G&p&q&r&j!}$s&t&u&v&w&x&y&z&z&{&!       ",
"                  _!]!_&|&a&}&~& '!'#'$'%'&'1&o&''(')'*'+','n!}$-'?#.'0'1'2'w&x&y&z&z&{&!       ",
"                  _!d$r!3'r&4'5'6'7'8'9':'1&)'o&''(')';'*'}$m!!&D$<'='>'?'@'A'B'C'D'D'E'!       ",
"                  F'=!h!(#.$G'I$r&w$>#n!J%J%P#m#y$H'P#P#P#9###M#I'X!J'K'L'M'N'O'P'Q'Q'R'!       ",
"                  B#*!P!S'T'Z!^%,$p#<#p#p#9#<#*$=!M!<#<#<#9#9#p#6%|$U'V'W'X'Y'Z'P'Q'Q'R'!       ",
"                  0!['_!)!]'r!X!#& #<#^'<#9#<#*$2%_'<#<#<#N#8#l!U!4#`'a'b'c'd'e'f'g'g'h'!       ",
"                  .!_!i'i'j'2%($k'1%l'0%'#N#N#*$2%_'<#^'M#N%o!1%m'=!n'o'p'q'r's't'u'u'v'!       ",
"                        w'x'! ! y')#G'%#z'<#N#6#{'T!##^'!&M%|'?!['@!}'~' (!(#(#(t'u'u'v'!       ",
"                            _!_!1!$(]!%(q!J%#&!%&('(}$V!((?!-!2!,#R!2!)(*(+(,(,(-(.(.(0(!       ",
"                              1(F'B#i'P!~$T!i!((y'?!2(Z%=!;!^&! )('$['! ! ! 3(3(4(5(5(6(!       ",
"                                    ! ! ,#+!~$[!=!P!7({!! ! ! !         ! ! ! 3(4(5(5(6(!       ",
"                                        B#i')!J!*!['['^&!                   ! ! ! 8(8(9(!       ",
"                                          ! I!x'B#! ! !                         ! ! ! ! !       ",
"                                            :('$F'!                                 ! ! !       "};