/* XPM */ 
static const char * info_xpm[] = {
"32 32 198 2",
"  	c None",
"! 	c black",
"# 	c #C4D8EC",
"$ 	c #A8D0F0",
"% 	c #DCE4E8",
"& 	c #E8E8EC",
"' 	c #ECECEC",
"( 	c #E8E8E8",
") 	c #E4E4E4",
"* 	c #ECE8EC",
"+ 	c #E8ECEC",
", 	c #E0E8EC",
"- 	c #D8E0EC",
". 	c #C0D4E8",
"0 	c #ECF0E8",
"1 	c #F0F0F0",
"2 	c #F4F4F4",
"3 	c #F4F8F8",
"4 	c #FCFCFC",
"5 	c white",
"6 	c #F8F8F8",
"7 	c #F0F0F4",
"8 	c #ECECF0",
"9 	c #E0E8F0",
": 	c #D0D8E8",
"; 	c #CCDCE8",
"< 	c #B4B8C4",
"= 	c #C8D0D8",
"> 	c #F8FCFC",
"? 	c #F0F4F4",
"@ 	c #ECF0F4",
"A 	c #C4D4E4",
"B 	c #D0DCE4",
"C 	c #DCE0E8",
"D 	c #284070",
"E 	c #001454",
"F 	c #001458",
"G 	c #7888A8",
"H 	c #F0F8F8",
"I 	c #A4B8D0",
"J 	c #CCD8E8",
"K 	c #E0E4E4",
"L 	c #F0F4F8",
"M 	c #8494B4",
"N 	c #001060",
"O 	c #003094",
"P 	c #002084",
"Q 	c #103480",
"R 	c #F4F8FC",
"S 	c #E4ECF4",
"T 	c #B8C8DC",
"U 	c #88A0BC",
"V 	c #E0E0E4",
"W 	c #E4E8EC",
"X 	c #F0F4FC",
"Y 	c #9CACCC",
"Z 	c #001470",
"[ 	c #2858B8",
"] 	c #346CCC",
"^ 	c #2C54A8",
"_ 	c #DCE8F4",
"` 	c #F0F8FC",
"a 	c #ECF4FC",
"b 	c #A8C0D8",
"c 	c #203868",
"d 	c #C8D8E0",
"e 	c #D0D8E0",
"f 	c #E0E8E8",
"g 	c #E8F0F8",
"h 	c #6880B8",
"i 	c #4870C8",
"j 	c #6088D8",
"k 	c #E8F4FC",
"l 	c #D8E8F0",
"m 	c #E0E8F8",
"n 	c #384870",
"o 	c #D8E0E0",
"p 	c #E0F0F8",
"q 	c #D0E0F0",
"r 	c #385078",
"s 	c #C0C8D8",
"t 	c #D8E0E8",
"u 	c #C0D0E0",
"v 	c #102048",
"w 	c #D8E8F8",
"x 	c #486090",
"y 	c #183878",
"z 	c #204888",
"{ 	c #204080",
"| 	c #082868",
"} 	c #204078",
"~ 	c #C8D8F0",
" !	c #D8F0F8",
"!!	c #C8D8E8",
"#!	c #B0C8E0",
"$!	c #B8C8D0",
"%!	c #90A8D0",
"&!	c #285098",
"'!	c #002088",
"(!	c #003098",
")!	c #002890",
"*!	c #184090",
"+!	c #C0D0E8",
",!	c #B8D0E0",
"-!	c #284068",
".!	c #001038",
"0!	c #B8C0C8",
"1!	c #204898",
"2!	c #D0E8F8",
"3!	c #082048",
"4!	c #B8C8D8",
"5!	c #B8D0F0",
"6!	c #C8E0F8",
"7!	c #B8C8E0",
"8!	c #081848",
"9!	c #B0C0C8",
":!	c #184088",
";!	c #C8E8F8",
"<!	c #A8B8C8",
"=!	c #B0C0D0",
">!	c #B8D0E8",
"?!	c #C0D8F8",
"@!	c #A0C0E0",
"A!	c #98B0C8",
"B!	c #B0D0F0",
"C!	c #C0E0F8",
"D!	c #B0C8E8",
"E!	c #88A8C8",
"F!	c #183860",
"G!	c #102050",
"H!	c #88A0C0",
"I!	c #98B0C0",
"J!	c #A8B8D0",
"K!	c #D0E0F8",
"L!	c #B0D0E8",
"M!	c #A8CCF0",
"N!	c #A0B8D8",
"O!	c #507098",
"P!	c #183058",
"Q!	c #6088B8",
"R!	c #80A0C0",
"S!	c #A0B0C0",
"T!	c #A8C8F0",
"U!	c #B8D8F8",
"V!	c #98B8D0",
"W!	c #80A8C8",
"X!	c #102850",
"Y!	c #003088",
"Z!	c #B0D8F8",
"[!	c #98B0D0",
"]!	c #90B0C8",
"^!	c #486890",
"_!	c #182850",
"`!	c #6080A8",
"a!	c #88A0B8",
"b!	c #88A8D0",
"c!	c #2050B8",
"d!	c #2858C0",
"e!	c #1848A8",
"f!	c #7098C8",
"g!	c #90B0D0",
"h!	c #5880A8",
"i!	c #102858",
"j!	c #98A8C0",
"k!	c #A8C8E8",
"l!	c #6890C8",
"m!	c #3868B8",
"n!	c #6090E0",
"o!	c #70A0E8",
"p!	c #5888C8",
"q!	c #B0D0F8",
"r!	c #98B8E0",
"s!	c #385880",
"t!	c #7898B8",
"u!	c #90A8C0",
"v!	c #90A8C8",
"w!	c #A0C0E8",
"x!	c #B8E0F8",
"y!	c #90B8D8",
"z!	c #587898",
"{!	c #88A8C0",
"|!	c #90B0D8",
"}!	c #A8D0F8",
"~!	c #A0C8F0",
" #	c #305078",
"!#	c #7090B0",
"##	c #405880",
"$#	c #6080A0",
"%#	c #98C0E8",
"&#	c #183060",
"'#	c #80A8D0",
"(#	c #90C0E8",
")#	c #406090",
"*#	c #305888",
"+#	c #90B8E8",
",#	c #386090",
"-#	c #80B0E0",
".#	c #284878",
"                # $ % & ' ( ) ( * + , - .                       ",
"              0 , + 1 2 3 4 5 5 6 3 7 8 9 :                     ",
"          ; % & 1 2 6 4 5 1 < = 4 5 > 3 ? @ 9 A                 ",
"        B ) ' 2 > 5 4 5 C D E F G 5 4 5 > H @ 9 ; I             ",
"      J K & L 5 5 5 > 5 M N O P Q : 4 > 5 5 R S 9 T U           ",
"    B V W L 5 5 > R X 5 Y Z [ ] ^ _ ` a X > 5 R _ S b c         ",
"  d e f @ 4 > R ` ` X ` g h i j b > k k k k a 5 ` l m U n       ",
"T = o 9 > > ` X ` a a a ` 5 k R > k k k k k p k > p q ; r       ",
"s e t g > a a a k k k S - : q u u p p p p p p p k ` q q G v     ",
"s e - a ` k k k k k w x y z { | } ~ k p p p  !w w k w !!#!D     ",
"$!= - k k k k k p p p %!&!'!(!)!*!# p w w w w w w  !w +!,!-!.!  ",
"0!s - k p p p p p p w ` # *!(!(!1!.  !w w w 2!2!2!w 2!,!,!-!3!  ",
"0!4!q p p p p p  !w w p # z O O *!5!w 2!2!2!2!2!2!2!6!7!,!-!8!  ",
"9!4!; p w w w w w w w  !+!:!O O *!5!w 2!2!2!2!;!6!;!6!#!#!-!3!  ",
"<!=!A w w w w w 2!2!2!w >!*!O (!*!5!2!6!6!6!6!6!6!6!?!#!@!-!3!  ",
"A!<!4!6!2!2!2!2!2!2!2!2!>!*!O (!*!B!2!6!6!6!6!6!6!C!D!b E!F!G!  ",
"H!I!J!>!K!2!2!2!2!6!6!2!L!:!O (!*!M!;!C!C!C!C!C!C!5!b N!O!G!P!  ",
"Q!R!S!b . 6!;!6!6!6!6!;!D!*!(!(!*!T!C!C!C!C!C!C!U!@!V!W!D X!P!  ",
"  U U I!b >!6!6!C!C!C!2!5!*!O O Y!@!2!U!U!U!U!Z!@![!]!^!G!_!    ",
"    `!a!I!N!L!C!C!C!;!b!&!(!c!d!e!&!f!U!U!U!B!@!g!E!h!i!_!i!    ",
"      `!U j!V!k!B!U!;!l!m!j j j n!o!p!Z!q!k!r!]!E!`!F!X!_!      ",
"        s!t!u!v!V!@!w!U!C!C!C!C!C!x!U!w!y!]!E!R!O!P!X!_!        ",
"          D z!R!H!{!E!E!b!|!r!M!}!~!|!E!E!R!`! #X!X!_!          ",
"            X!D O!`!t!R!R!R!E!r!~!r!E!!#h! #P!G!P!_!            ",
"              G!X!X!D ##x $#R!b!%#r!`!F!X!G!_!P!_!              ",
"                        G!&#`!b!%#%#^!v G!_!                    ",
"                          G! #'#y!(#)#G!*#                      ",
"                            X!*#'#+#,#G!                        ",
"                              G!)#-#,#v                         ",
"                                3!*#.#G!                        ",
"                                  X!X!_!                        ",
"                                                                "};