/* XPM */ 
static const char * ladder_xpm[] = {
"16 16 37 1",
" 	c None",
"!	c black",
"#	c #251A14",
"$	c #261A14",
"%	c #251B14",
"&	c #251A13",
"'	c #251C14",
"(	c #241A13",
")	c #221912",
"*	c #19120D",
"+	c #16100C",
",	c #231A13",
"-	c #231912",
".	c #211711",
"0	c #211812",
"1	c #201710",
"2	c #1D150F",
"3	c #150F0B",
"4	c #130E0A",
"5	c #1B130E",
"6	c #1B140E",
"7	c #19120E",
"8	c #1A120E",
"9	c #110C09",
":	c #1D1510",
";	c #15100B",
"<	c #130D0A",
"=	c #140E0B",
">	c #100B09",
"?	c #100C09",
"@	c #17100C",
"A	c #0E0A08",
"B	c #0E0A07",
"C	c #0C0805",
"D	c #0B0805",
"E	c #0A0704",
"F	c #090704",
"      #  $      ",
"      %  &      ",
"      '  (      ",
"      )*+,      ",
"      -  .      ",
"      0  1      ",
"      2341      ",
"      5  6      ",
"      7  7      ",
"      839:      ",
"      3  ;      ",
"      <  <      ",
"      =>?@      ",
"      A  B      ",
"      C  D      ",
"      E  F      "};