/* XPM */ 
static const char * orc_walk_xpm[] = {
"16 16 88 1",
" 	c None",
"!	c black",
"#	c #231A10",
"$	c #2C2113",
"%	c #2D2110",
"&	c #8A7A46",
"'	c #020000",
"(	c #0B0906",
")	c #19120A",
"*	c #2D190E",
"+	c #231209",
",	c #25221C",
"-	c #100E0A",
".	c #0C0A07",
"0	c #19120C",
"1	c #160F0A",
"2	c #524B40",
"3	c #36332B",
"4	c #080501",
"5	c #231E14",
"6	c #3E3625",
"7	c #282318",
"8	c #0B0907",
"9	c #453D34",
":	c #2A251F",
";	c #211D13",
"<	c #2C271E",
"=	c #443C2C",
">	c #353026",
"?	c #0A0703",
"@	c #2F271C",
"A	c #312920",
"B	c #453B2D",
"C	c #2E2920",
"D	c #564A3F",
"E	c #63564E",
"F	c #160D03",
"G	c #2C1D0B",
"H	c #38332A",
"I	c #4D412F",
"J	c #201B15",
"K	c #322920",
"L	c #5D4830",
"M	c #45381F",
"N	c #1E160C",
"O	c #302415",
"P	c #2C2821",
"Q	c #554B36",
"R	c #201D14",
"S	c #322311",
"T	c #634E2A",
"U	c #1D1B17",
"V	c #38342C",
"W	c #333028",
"X	c #4F4736",
"Y	c #272012",
"Z	c #2A2316",
"[	c #3B2E1B",
"]	c #4F4732",
"^	c #1F1A11",
"_	c #373023",
"`	c #2E291D",
"a	c #211A0E",
"b	c #3F392D",
"c	c #272522",
"d	c #29231B",
"e	c #413B31",
"f	c #33302B",
"g	c #261F14",
"h	c #2F2D27",
"i	c #1E1911",
"j	c #37342F",
"k	c #24201C",
"l	c #0B0A09",
"m	c #080708",
"n	c #2C2923",
"o	c #2E2D2A",
"p	c #171410",
"q	c #403D3A",
"r	c #56514D",
"s	c #1C1914",
"t	c #3B3935",
"u	c #2A2722",
"v	c #423D33",
"w	c #070503",
"x	c #26211B",
"y	c #48463F",
"z	c #544F46",
"                ",
"       #$%&     ",
"      '()*+     ",
"      ,-.01!    ",
"     234567     ",
"    89:;<=>     ",
"    ?@ABCDE     ",
"    FGHIJKLM    ",
"    NOPQR ST    ",
"    UVWXYZ![]   ",
"     ^_`ab c,   ",
"    d7efgh      ",
"   ijklmno      ",
"   pqr  st      ",
"    uv  wxyz    ",
"                "};