/* XPM */ 
static const char * orc_body_xpm[] = {
"16 16 96 2",
"  	c None",
"! 	c black",
"# 	c #463619",
"$ 	c #322818",
"% 	c #191913",
"& 	c #41361F",
"' 	c #23150D",
"( 	c #362415",
") 	c #1A140E",
"* 	c #0E0D09",
"+ 	c #302A1C",
", 	c #1D1711",
"- 	c #311F12",
". 	c #2C1A10",
"0 	c #0F0D06",
"1 	c #0C0906",
"2 	c #160F09",
"3 	c #332C22",
"4 	c #2E271D",
"5 	c #3A3226",
"6 	c #352D23",
"7 	c #140E08",
"8 	c #18110B",
"9 	c #211D14",
": 	c #211D16",
"; 	c #1B1710",
"< 	c #595857",
"= 	c #555351",
"> 	c #1F1A11",
"? 	c #252117",
"@ 	c #362F22",
"A 	c #39342B",
"B 	c #302D27",
"C 	c #191610",
"D 	c #4C473C",
"E 	c #554F41",
"F 	c #352E22",
"G 	c #21201C",
"H 	c #494338",
"I 	c #080604",
"J 	c #453E30",
"K 	c #181611",
"L 	c #5B5645",
"M 	c #696350",
"N 	c #3E372B",
"O 	c #413A2E",
"P 	c #3B322C",
"Q 	c #322A1B",
"R 	c #2A2013",
"S 	c #362918",
"T 	c #0E0C09",
"U 	c #3E3C38",
"V 	c #47443E",
"W 	c #29231A",
"X 	c #2E271C",
"Y 	c #4A3B25",
"Z 	c #3B3225",
"[ 	c #685B46",
"] 	c #2D271B",
"^ 	c #2F2927",
"_ 	c #322B27",
"` 	c #3E3625",
"a 	c #282016",
"b 	c #3D2F1D",
"c 	c #544E3F",
"d 	c #463C2B",
"e 	c #120C06",
"f 	c #4B402D",
"g 	c #6F6A5A",
"h 	c #6E6450",
"i 	c #1E1C17",
"j 	c #0F0D0B",
"k 	c #463C2E",
"l 	c #0D0B08",
"m 	c #4A4032",
"n 	c #37332A",
"o 	c #22211F",
"p 	c #65635E",
"q 	c #030303",
"r 	c #676460",
"s 	c #3F3C37",
"t 	c #0E0D0D",
"u 	c #282624",
"v 	c #222120",
"w 	c #282522",
"x 	c #1D1D1B",
"y 	c #2F2E2C",
"z 	c #2C2B2A",
"{ 	c #39352D",
"| 	c #534E45",
"} 	c #47433A",
"~ 	c #4E483E",
" !	c #3A3425",
"!!	c #534831",
"#!	c #483E2A",
"$!	c #524A36",
"                                ",
"        # $       % &           ",
"        ' ( ) * + , - .         ",
"      0 1 2 3 4 5 6 7 8         ",
"        9 : ; < = > ? @         ",
"        A B C D E F G H         ",
"      I J   K L M N   O P       ",
"    Q R S   T U V W   X Y       ",
"      Z [   ] ^ _ `   a b       ",
"      c     d e e f   g h       ",
"      i   j k   l m     n       ",
"          o p   q r s           ",
"          t u     v w           ",
"          x y     z             ",
"          { |     } ~           ",
"           !!!    #!$!          "};