/* XPM */ 
static const char * unchecked_disabled_xpm[] = {
"16 16 20 1",
" 	c None",
"!	c black",
"#	c #464646",
"$	c #DBDBDB",
"%	c #DDDDDD",
"&	c #DFDFDF",
"'	c #E1E1E1",
"(	c #E4E4E4",
")	c #E7E7E7",
"*	c #EBEBEB",
"+	c #EEEEEE",
",	c #F0F0F0",
"-	c #F2F2F2",
".	c #F4F4F4",
"0	c #F6F6F6",
"1	c #F8F8F8",
"2	c #FAFAFA",
"3	c #FCFCFC",
"4	c #FEFEFE",
"5	c white",
"                ",
" #############  ",
" #$$$%&'()*+,#  ",
" #$$%&'()*+,-#  ",
" #$%&'()*+,-.#  ",
" #%&'()*+,-.0#  ",
" #&'()*+,-.01#  ",
" #'()*+,-.012#  ",
" #()*+,-.0123#  ",
" #)*+,-.01234#  ",
" #*+,-.012345#  ",
" #+,-.0123455#  ",
" #,-.01234555#  ",
" #############  ",
"                ",
"                "};